<?xml version="1.0" encoding="UTF-8" standalone="no" ?>
<!DOCTYPE svg PUBLIC "-//W3C//DTD SVG 1.1//EN" "http://www.w3.org/Graphics/SVG/1.1/DTD/svg11.dtd">
<svg xmlns="http://www.w3.org/2000/svg" xmlns:xlink="http://www.w3.org/1999/xlink" version="1.1" width="1080" height="1080" viewBox="0 0 1080 1080" xml:space="preserve">
<desc>Created with Fabric.js 5.2.4</desc>
<defs>
</defs>
<g transform="matrix(1 0 0 1 540 540)" id="7df627b6-7987-4499-b4e3-cbb8ae5fbbb0"  >
<rect style="stroke: none; stroke-width: 1; stroke-dasharray: none; stroke-linecap: butt; stroke-dashoffset: 0; stroke-linejoin: miter; stroke-miterlimit: 4; fill: rgb(255,255,255); fill-rule: nonzero; opacity: 1; visibility: hidden;" vector-effect="non-scaling-stroke"  x="-540" y="-540" rx="0" ry="0" width="1080" height="1080" />
</g>
<g transform="matrix(1 0 0 1 540 540)" id="9e2dc489-29fd-452a-9fac-ae6dfaea435b"  >
</g>
<g transform="matrix(67.5 0 0 67.5 540 540)"  >
<path style="stroke: rgb(0,0,0); stroke-width: 0; stroke-dasharray: none; stroke-linecap: butt; stroke-dashoffset: 0; stroke-linejoin: miter; stroke-miterlimit: 4; fill: rgb(141,141,141); fill-rule: evenodd; opacity: 1;"  transform=" translate(-8, -8)" d="M 3.5 2 L 2.5 2 L 2.5 7 L 3.5 7 L 3.5 2 z M 9.6 7 L 6.4 7 L 6 6.45 L 6 5.45 L 6.4 5 L 9.600000000000001 5 L 10.000000000000002 5.5 L 10.000000000000002 6.5 L 9.600000000000001 7 z M 4.6 10 L 1.4 10 L 1 9.5 L 1 8.5 L 1.4 8 L 4.6 8 L 5 8.5 L 5 9.5 L 4.6 10 z M 8.5 2 L 7.5 2 L 7.5 4 L 8.5 4 L 8.5 2 z M 7.5 8 L 8.5 8 L 8.5 14 L 7.5 14 L 7.5 8 z M 3.5 11 L 2.5 11 L 2.5 14 L 3.5 14 L 3.5 11 z M 11.4 11 L 14.59 11 L 14.99 10.5 L 14.99 9.55 L 14.59 9.05 L 11.4 9.05 L 11 9.55 L 11 10.5 L 11.4 11 z M 13.5 2 L 12.5 2 L 12.5 8 L 13.5 8 L 13.5 2 z M 12.5 12 L 13.5 12 L 13.5 14 L 12.5 14 L 12.5 12 z" stroke-linecap="round" />
</g>
</svg>