<?xml version="1.0" encoding="UTF-8" standalone="no" ?>
<!DOCTYPE svg PUBLIC "-//W3C//DTD SVG 1.1//EN" "http://www.w3.org/Graphics/SVG/1.1/DTD/svg11.dtd">
<svg xmlns="http://www.w3.org/2000/svg" xmlns:xlink="http://www.w3.org/1999/xlink" version="1.1" width="1080" height="1080" viewBox="0 0 1080 1080" xml:space="preserve">
<desc>Created with Fabric.js 5.2.4</desc>
<defs>
</defs>
<g transform="matrix(1 0 0 1 540 540)" id="97cdce86-4096-4cc9-ad90-3478fd1ed7fb"  >
<rect style="stroke: none; stroke-width: 1; stroke-dasharray: none; stroke-linecap: butt; stroke-dashoffset: 0; stroke-linejoin: miter; stroke-miterlimit: 4; fill: rgb(255,255,255); fill-rule: nonzero; opacity: 1; visibility: hidden;" vector-effect="non-scaling-stroke"  x="-540" y="-540" rx="0" ry="0" width="1080" height="1080" />
</g>
<g transform="matrix(1 0 0 1 540 540)" id="1f06bd06-d52c-4c52-8fba-6a73923eb651"  >
</g>
<g transform="matrix(45 0 0 45 540 540)"  >
<path style="stroke: rgb(0,0,0); stroke-width: 0; stroke-dasharray: none; stroke-linecap: butt; stroke-dashoffset: 0; stroke-linejoin: miter; stroke-miterlimit: 4; fill: rgb(128,128,128); fill-rule: nonzero; opacity: 1;"  transform=" translate(-12, -12)" d="M 1 12 C 1 5.925 5.925 1 12 1 C 18.075 1 23 5.925 23 12 C 23 18.075 18.075 23 12 23 C 5.925000000000001 23 1 18.075 1 12 Z M 9.036 7.976 C 8.740339709336478 7.700816599686262 8.279979429093448 7.70876908053499 7.994 7.994 C 7.70876908053499 8.279979429093448 7.700816599686262 8.740339709336476 7.976 9.036 L 10.939 12 L 7.976 14.963000000000001 C 7.7748907228652735 15.149742285852758 7.692015780209871 15.431518339183008 7.759999413374237 15.697405248031371 C 7.827983046538603 15.963292156879735 8.035937424059016 16.170707144816014 8.302 16.238 C 8.567576214859058 16.30606968337781 8.849121511274653 16.223600693283323 9.036 16.023 L 12 13.06 L 14.963000000000001 16.024 C 15.257149648615096 16.308371052106317 15.724933535677167 16.304528197096946 16.014371570946928 16.015362959221406 C 16.303809606216692 15.726197721345867 16.30809355690854 15.258417665875356 16.024 14.964 L 13.061 12 L 16.024 9.036 C 16.225109277134727 8.849257714147242 16.307984219790132 8.567481660816991 16.240000586625765 8.301594751968628 C 16.172016953461398 8.035707843120264 15.964062575940986 7.828292855183985 15.698 7.760999999999999 C 15.432423785140942 7.692930316622188 15.150878488725347 7.775399306716674 14.964 7.975999999999999 L 12 10.939 Z" stroke-linecap="round" />
</g>
</svg>