<?xml version="1.0" encoding="UTF-8" standalone="no" ?>
<!DOCTYPE svg PUBLIC "-//W3C//DTD SVG 1.1//EN" "http://www.w3.org/Graphics/SVG/1.1/DTD/svg11.dtd">
<svg xmlns="http://www.w3.org/2000/svg" xmlns:xlink="http://www.w3.org/1999/xlink" version="1.1" width="1080" height="1080" viewBox="0 0 1080 1080" xml:space="preserve">
<desc>Created with Fabric.js 5.2.4</desc>
<defs>
</defs>
<g transform="matrix(1 0 0 1 540 540)" id="24a9eeb9-ff54-4e62-b9ad-5dde9b3d88bf"  >
<rect style="stroke: none; stroke-width: 1; stroke-dasharray: none; stroke-linecap: butt; stroke-dashoffset: 0; stroke-linejoin: miter; stroke-miterlimit: 4; fill: rgb(255,255,255); fill-rule: nonzero; opacity: 1; visibility: hidden;" vector-effect="non-scaling-stroke"  x="-540" y="-540" rx="0" ry="0" width="1080" height="1080" />
</g>
<g transform="matrix(1 0 0 1 540 540)" id="c1cd1907-354b-4dc2-984c-66004ae52cbd"  >
</g>
<g transform="matrix(45 0 0 45 540 540)"  >
<path style="stroke: rgb(0,0,0); stroke-width: 0; stroke-dasharray: none; stroke-linecap: butt; stroke-dashoffset: 0; stroke-linejoin: miter; stroke-miterlimit: 4; fill: rgb(245,200,66); fill-rule: nonzero; opacity: 1;"  transform=" translate(-12, -12)" d="M 12 2 L 11 2 L 11 11 L 2 11 L 2 12 C 2.000863480137509 16.04395897936826 4.437275000967416 19.689340502166466 8.173454419887017 21.23677978112145 C 11.909633838806618 22.78421906007643 16.21005745627318 21.929079155775945 19.07 19.07 C 21.929079155775945 16.21005745627318 22.784219060076435 11.909633838806618 21.23677978112145 8.173454419887017 C 19.689340502166466 4.437275000967416 16.04395897936826 2.0008634801375074 12 2 z" stroke-linecap="round" />
</g>
<g transform="matrix(NaN NaN NaN NaN 0 0)"  >
<g style=""   >
</g>
</g>
<g transform="matrix(NaN NaN NaN NaN 0 0)"  >
<g style=""   >
</g>
</g>
</svg>