<?xml version="1.0" encoding="UTF-8" standalone="no" ?>
<!DOCTYPE svg PUBLIC "-//W3C//DTD SVG 1.1//EN" "http://www.w3.org/Graphics/SVG/1.1/DTD/svg11.dtd">
<svg xmlns="http://www.w3.org/2000/svg" xmlns:xlink="http://www.w3.org/1999/xlink" version="1.1" width="1080" height="1080" viewBox="0 0 1080 1080" xml:space="preserve">
<desc>Created with Fabric.js 5.2.4</desc>
<defs>
</defs>
<g transform="matrix(1 0 0 1 540 540)" id="5048463c-b7df-47b4-92d8-4728cf443224"  >
<rect style="stroke: none; stroke-width: 1; stroke-dasharray: none; stroke-linecap: butt; stroke-dashoffset: 0; stroke-linejoin: miter; stroke-miterlimit: 4; fill: rgb(255,255,255); fill-rule: nonzero; opacity: 1; visibility: hidden;" vector-effect="non-scaling-stroke"  x="-540" y="-540" rx="0" ry="0" width="1080" height="1080" />
</g>
<g transform="matrix(1 0 0 1 540 540)" id="a6a7273b-2abc-4aff-9d0e-3a01e2def59f"  >
</g>
<g transform="matrix(30 0 0 30 540 540)"  >
<path style="stroke: rgb(0,0,0); stroke-width: 0; stroke-dasharray: none; stroke-linecap: butt; stroke-dashoffset: 0; stroke-linejoin: miter; stroke-miterlimit: 4; fill: none; fill-rule: nonzero; opacity: 1;" vector-effect="non-scaling-stroke"  transform=" translate(-12, -12)" d="M 0 0 L 24 0 L 24 24 L 0 24 z" stroke-linecap="round" />
</g>
<g transform="matrix(30 0 0 30 540 540)"  >
<path style="stroke: rgb(0,0,0); stroke-width: 0; stroke-dasharray: none; stroke-linecap: butt; stroke-dashoffset: 0; stroke-linejoin: miter; stroke-miterlimit: 4; fill: rgb(255,255,255); fill-rule: nonzero; opacity: 1;" vector-effect="non-scaling-stroke"  transform=" translate(-12, -12)" d="M 12 7 C 9.24 7 7 9.24 7 12 C 7 14.76 9.24 17 12 17 C 14.76 17 17 14.76 17 12 C 17 9.24 14.76 7 12 7 z M 2 13 L 4 13 C 4.55 13 5 12.55 5 12 C 5 11.45 4.55 11 4 11 L 2 11 C 1.45 11 1 11.45 1 12 C 1 12.55 1.45 13 2 13 z M 20 13 L 22 13 C 22.55 13 23 12.55 23 12 C 23 11.45 22.55 11 22 11 L 20 11 C 19.45 11 19 11.45 19 12 C 19 12.55 19.45 13 20 13 z M 11 2 L 11 4 C 11 4.55 11.45 5 12 5 C 12.55 5 13 4.55 13 4 L 13 2 C 13 1.45 12.55 1 12 1 C 11.45 1 11 1.45 11 2 z M 11 20 L 11 22 C 11 22.55 11.45 23 12 23 C 12.55 23 13 22.55 13 22 L 13 20 C 13 19.45 12.55 19 12 19 C 11.45 19 11 19.45 11 20 z M 5.99 4.58 C 5.8031554051442304 4.392771911007735 5.549509470406094 4.287555967922951 5.285 4.287555967922951 C 5.020490529593906 4.287555967922951 4.76684459485577 4.392771911007735 4.58 4.58 C 4.392771911007735 4.76684459485577 4.287555967922951 5.020490529593906 4.287555967922951 5.285 C 4.287555967922951 5.549509470406094 4.392771911007735 5.8031554051442304 4.58 5.99 L 5.640000000000001 7.050000000000001 C 6.03 7.44 6.670000000000001 7.44 7.050000000000001 7.050000000000001 C 7.430000000000001 6.660000000000001 7.44 6.0200000000000005 7.050000000000001 5.640000000000001 L 5.99 4.58 z M 18.36 16.95 C 18.17315540514423 16.762771911007732 17.919509470406094 16.65755596792295 17.655 16.65755596792295 C 17.390490529593905 16.65755596792295 17.13684459485577 16.762771911007732 16.95 16.95 C 16.762771911007732 17.13684459485577 16.65755596792295 17.390490529593905 16.65755596792295 17.655 C 16.65755596792295 17.919509470406094 16.762771911007732 18.17315540514423 16.95 18.36 L 18.009999999999998 19.419999999999998 C 18.4 19.81 19.04 19.81 19.419999999999998 19.419999999999998 C 19.607228088992265 19.233155405144228 19.712444032077048 18.979509470406093 19.712444032077048 18.714999999999996 C 19.712444032077048 18.450490529593903 19.607228088992265 18.19684459485577 19.419999999999998 18.009999999999998 L 18.36 16.95 z M 19.419999999999998 5.989999999999998 C 19.607228088992265 5.803155405144229 19.712444032077048 5.549509470406092 19.712444032077048 5.284999999999998 C 19.712444032077048 5.020490529593904 19.607228088992265 4.766844594855768 19.419999999999998 4.579999999999998 C 19.233155405144228 4.392771911007733 18.979509470406093 4.287555967922949 18.714999999999996 4.287555967922949 C 18.450490529593903 4.287555967922949 18.19684459485577 4.392771911007733 18.009999999999998 4.579999999999998 L 16.95 5.639999999999999 C 16.56 6.0299999999999985 16.56 6.669999999999999 16.95 7.049999999999999 C 17.34 7.429999999999999 17.98 7.439999999999999 18.36 7.049999999999999 L 19.419999999999998 5.989999999999998 z M 7.05 18.36 C 7.237228088992265 18.17315540514423 7.342444032077049 17.919509470406094 7.342444032077049 17.655 C 7.342444032077049 17.390490529593905 7.237228088992265 17.13684459485577 7.05 16.95 C 6.86315540514423 16.762771911007732 6.609509470406094 16.65755596792295 6.345 16.65755596792295 C 6.080490529593906 16.65755596792295 5.826844594855769 16.762771911007732 5.64 16.95 L 4.58 18.009999999999998 C 4.19 18.4 4.19 19.04 4.58 19.419999999999998 C 4.97 19.799999999999997 5.61 19.81 5.99 19.419999999999998 L 7.050000000000001 18.36 z" stroke-linecap="round" />
</g>
</svg>